<svg xmlns="http://www.w3.org/2000/svg" xmlns:xlink="http://www.w3.org/1999/xlink" width="400" height="400" viewBox="0 0 400 400"><defs><linearGradient id="gradient-14" x1="0%" y1="0%" x2="100%" y2="0%" gradientTransform="rotate(109.6, 0.5, 0.5)">       <stop offset="11.2%" stop-color="rgba(162, 2, 63, 1)"/>       <stop offset="53.6%" stop-color="rgba(231, 62, 68, 1)"/>       <stop offset="91.1%" stop-color="rgba(255, 129, 79, 1)"/>     </linearGradient></defs>
<rect data-name="background" width="100%" height="100%" fill="none"/><g data-name="icon" fill="url(#gradient-14)" data="id:7699354" transform="translate(268.03742617846586,139.4108430647265) scale(1.2118804577304554)">
    
 <path d="m98.496 72.703c-0.69922-1.875-2.0938-3.3633-3.9258-4.1914-1.8516-0.83984-3.9141-0.89844-5.8125-0.17188l-2.1914 0.83984-0.64844-11.508c0.054687-0.15234 0.089843-0.31641 0.089843-0.48828 0-0.23438-0.058593-0.44922-0.15234-0.64844l-1.2109-21.414c-0.09375-2.0742-1.8086-3.6992-3.9062-3.6992h-1.168l2.9648-2.0117c0.5625 0.35938 1.1758 0.64844 1.8398 0.83984 0.66016 0.19141 1.332 0.28516 1.9961 0.28516 2.4414 0 4.7656-1.2578 6.0547-3.4141 1.3945-2.3047 1.3438-5.1719-0.023437-7.4023 1.4336-1.7344 1.9023-4.1328 1.1523-6.3555-0.73828-2.1875-2.5508-3.7969-4.7344-4.3203-0.12891-2.3828-1.4297-4.5469-3.5586-5.7656-2.0781-1.2227-4.6406-1.2656-6.7695-0.19922-1.543-1.6328-3.8398-2.4023-6.1211-1.957-2.2773 0.44922-4.125 2.0625-4.9336 4.1992-2.6094-0.10156-5.1016 1.293-6.4141 3.6719-1.5273 2.8086-0.99609 6.3203 1.3125 8.5586 0.48437 0.45312 1.0195 0.82812 1.5859 1.125l-0.42188 4.4727c-0.43359-0.28516-0.89062-0.53516-1.3633-0.75781 0.36328-0.36719 0.6875-0.77734 0.95703-1.2305 0.42188-0.71484 0.1875-1.6328-0.52734-2.0547-0.71094-0.42578-1.6328-0.1875-2.0547 0.52344-0.36719 0.61719-0.91016 1.0938-1.5469 1.3906v-1.5625c0-0.82812-0.67188-1.5-1.5-1.5s-1.5 0.67188-1.5 1.5v1.5625c-0.625-0.29297-1.1602-0.76562-1.5078-1.3711-0.41406-0.71875-1.3281-0.96484-2.0469-0.55469s-0.96875 1.3281-0.55469 2.0469c0.26172 0.45703 0.58594 0.87109 0.94531 1.2422-0.25781 0.12109-0.51562 0.25-0.76172 0.39063-0.375-0.76172-0.74609-1.5156-1.1367-2.25-0.03125-0.10938-0.074219-0.21484-0.13281-0.31641-0.050781-0.085937-0.10547-0.16016-0.16797-0.23047-0.39453-0.73047-0.78516-1.4727-1.1914-2.1719-1.8867-3.2891-4.0078-6.5781-7.332-7.4766-1.0078-0.26953-2.0508-0.28516-3.1172-0.0625 0.16016-0.64844 0.24609-1.3203 0.24609-2.0039 0-2.8398-1.4219-5.4609-3.8008-7.0117-0.49609-0.32422-1.1406-0.32422-1.6367 0-1.7734 1.1562-3.0117 2.9062-3.5273 4.8984-1.9688-0.52734-4.1289-0.34375-5.9805 0.57031-0.54297 0.26953-0.87109 0.83594-0.83594 1.4414 0.17969 2.8477 1.7422 5.3867 4.1836 6.793 0.59375 0.33984 1.2227 0.59375 1.8672 0.78125-0.73437 0.8125-1.25 1.7266-1.5195 2.7383-0.58203 2.1758-0.015625 4.418 0.97656 6.6289 0.03125 0.10156 0.074218 0.19922 0.12891 0.29688 0.003906 0.003906 0.007812 0.007812 0.011719 0.015624 0.49609 1.0625 1.0859 2.1211 1.6875 3.1523 0.54297 0.94922 1.125 1.9062 1.7305 2.8594h-1.5039c-2.0547 0-3.7695 1.6094-3.9062 3.6836l-1.2227 21.812c-0.015625 0.089844-0.027344 0.17969-0.027344 0.26953 0 0.027344 0.007813 0.050782 0.007813 0.078125l-0.48438 8.6797c-1.3477 0.46484-2.6172 1.0781-3.8008 1.8477h-1.7227c-0.375-1.6055-1.8203-2.8086-3.5508-2.8086l-11.629-0.003906c-2.0156 0-3.6523 1.625-3.6523 3.625v26.762c0 2 1.6406 3.625 3.6523 3.625h11.621c1.7305 0 3.1758-1.1992 3.5508-2.8047h39.25c2.0117 0 3.7695-0.35938 5.7227-1.1719l29.422-12.613c3.8594-1.6484 5.7344-5.9141 4.2773-9.7031zm-81.566 22.664c0 0.33984-0.30078 0.625-0.65234 0.625h-11.625c-0.35547 0-0.65234-0.28516-0.65234-0.625v-26.762c0-0.33984 0.30078-0.625 0.65234-0.625h11.621c0.35547 0 0.65234 0.28516 0.65234 0.625zm57.758-64.262c-0.14453 0.09375-0.28516 0.21094-0.42578 0.31641h-5.8477c-0.17187-2.1133-0.94531-4.0508-2.1484-5.6562l0.59375-6.2969c0.85547 0.046875 1.7227-0.046875 2.5508-0.3125 0.67969 1.0508 1.7539 2.1289 3.1133 3.1211l-1.1523 2.8711c-0.43359 0.99219-0.23828 2.1523 0.49609 2.9492 0.53906 0.58984 1.2812 0.90625 2.0469 0.90625 0.25781 0 0.51953-0.035156 0.77734-0.10938l5.668-1.6328zm-0.38281-5.2266 0.84375-2.1016c1.0625 0.46484 2.0898 0.80078 3.0352 0.98438zm-10.652-15.449c0.89453-1.625 2.7578-2.4453 4.5234-1.9922 0.41406 0.10547 0.85156 0.03125 1.207-0.20703 0.35547-0.23828 0.58984-0.61328 0.64844-1.0352 0.22266-1.5742 1.3945-2.832 2.9102-3.1289 1.543-0.30859 3.1055 0.41016 3.8828 1.7695 0.21875 0.38281 0.59375 0.64844 1.0273 0.73047 0.43359 0.078125 0.87891-0.03125 1.2188-0.3125 1.3398-1.0898 3.2148-1.2422 4.668-0.38672 0.003907 0.003906 0.007813 0.003906 0.011719 0.007812s0.007812 0.003906 0.011719 0.007812c1.4922 0.85156 2.2812 2.5195 2.0078 4.2422-0.070312 0.43359 0.054688 0.875 0.33984 1.2109 0.28516 0.33203 0.70312 0.52344 1.1406 0.52344 1.5664 0 2.957 0.99219 3.4531 2.4688 0.50391 1.4883 0.015625 3.1172-1.2148 4.0508-0.33984 0.25781-0.55469 0.64844-0.58984 1.0742-0.035157 0.42578 0.11328 0.84766 0.41016 1.1562 1.2773 1.3398 1.4961 3.3789 0.53516 4.9727-0.94141 1.5742-2.8516 2.3125-4.6445 1.793-1.7734-0.51562-2.9844-2.168-2.9414-4.0234 0.011719-0.48047-0.20703-0.93359-0.58594-1.2227-0.26562-0.20312-0.58594-0.3125-0.91406-0.3125-0.14062 0-0.28125 0.019532-0.41797 0.058594-0.80078 0.23438-2.7891-0.15234-5.043-1.3398-2.168-1.3398-3.5078-2.875-3.7109-3.7031-0.11328-0.46484-0.44141-0.84766-0.88281-1.0273-0.44141-0.18359-0.94141-0.14453-1.3516 0.10156-1.5703 0.94922-3.6133 0.72656-4.9531-0.53125-1.3242-1.2852-1.6289-3.3242-0.74609-4.9453zm-11.312 15.762c0.019531-0.015625 0.03125-0.03125 0.050781-0.042968 1.3203-1.0859 2.9961-1.75 4.8203-1.8047 0.085937 0.003906 0.16797 0.015625 0.25 0.015625 0.085937 0 0.16797-0.015625 0.25-0.015625 3.9883 0.125 7.25 3.1758 7.6914 7.0781l-15.883-0.003906c0.23828-2.0938 1.2852-3.9414 2.8203-5.2266zm-17.754-21.777c1.0273 1 1.6172 2.375 1.6172 3.8438 0 1.4648-0.58984 2.8359-1.6133 3.8359-0.019532-0.019531-0.042969-0.042969-0.066406-0.0625-0.21875-0.21875-0.41797-0.45312-0.58984-0.70312-0.023438-0.035156-0.046875-0.070313-0.070313-0.10547-0.17578-0.26562-0.33203-0.54297-0.45703-0.83594-0.011719-0.027344-0.023438-0.0625-0.035156-0.089844-0.125-0.30469-0.22266-0.61719-0.28906-0.9375-0.003906-0.023437-0.007812-0.046875-0.011719-0.066406-0.066406-0.33594-0.10547-0.67969-0.10547-1.0312 0.003906-1.4727 0.59375-2.8477 1.6211-3.8477zm-5.4883 7.9297c-1.2539-0.72266-2.1484-1.9219-2.5117-3.3203 1.1484-0.31641 2.3594-0.24609 3.4375 0.1875 0.003906 0.015624 0.007812 0.03125 0.007812 0.046874 0.019531 0.17188 0.058594 0.33594 0.089844 0.50391 0.03125 0.17578 0.058594 0.35547 0.10156 0.52734 0.035156 0.14453 0.089844 0.28516 0.13281 0.42969 0.058593 0.1875 0.10938 0.37891 0.17969 0.5625 0.050782 0.12891 0.11328 0.24609 0.16797 0.37109 0.085937 0.1875 0.16406 0.38281 0.26172 0.5625 0.066406 0.125 0.14844 0.23828 0.21875 0.35938 0.097656 0.16016 0.1875 0.32422 0.29297 0.48047-0.83203-0.046876-1.6484-0.29297-2.3789-0.71094zm3.2422 12.887 7.8984-4.5625c0.71875-0.41406 0.96484-1.332 0.54688-2.0508-0.41406-0.71875-1.3281-0.96484-2.0508-0.55078l-7.6094 4.3945c-0.37891-1.1562-0.53516-2.2539-0.27734-3.2266 0.28516-1.0625 1.0625-1.9492 2.3867-2.7109l2.3359-1.3516c0.003907-0.003906 0.007813-0.003906 0.011719-0.003906 0.003907-0.003907 0.007813-0.007813 0.015625-0.011719l2.1445-1.2383c1.3203-0.76172 2.4805-0.98828 3.5469-0.69922 2.2188 0.60156 3.9414 3.3281 5.5156 6.0781 0.20703 0.35547 0.40234 0.74219 0.60937 1.1094l-8.082 4.6641c-0.71875 0.41406-0.96484 1.332-0.55078 2.0508 0.27734 0.48047 0.78125 0.75 1.3008 0.75 0.25391 0 0.51172-0.0625 0.74609-0.19922l7.9961-4.6133c0.26562 0.51953 0.52344 1.0508 0.78125 1.5859-1.7422 1.7812-2.8828 4.1484-3.0977 6.7812l-10.43-0.007812c-0.96875-1.4453-1.8867-2.9023-2.7148-4.3555-0.35547-0.60547-0.69922-1.2188-1.0234-1.832zm-3.5781 33.453h40.633c0.82812 0 1.5-0.67188 1.5-1.5s-0.67188-1.5-1.5-1.5h-40.465l1.1445-20.395c0.03125-0.48437 0.43359-0.86719 0.91406-0.86719h49.746c0.48047 0 0.89062 0.375 0.91016 0.85156l1.1523 20.41h-7.3086c-0.82812 0-1.5 0.67188-1.5 1.5s0.67188 1.5 1.5 1.5h7.4766l0.65625 11.625-3.6992 1.418-13.199 0.003907c0.5-1.4883 0.50391-3.1602-0.097656-4.7461-1.2891-3.2773-4.8359-4.9102-8.8203-4.0625l-18.824 3.9688c-3.2539-1.6602-6.9648-2.2656-10.582-1.7188zm43.34 16.047-14.117 5.4102-4.5703-0.57031 9.1719-3.5195c0.82031-0.3125 1.5391-0.76953 2.1562-1.3203zm20.938 4.9141-29.406 12.609c-1.5742 0.65234-2.9375 0.93359-4.5547 0.93359h-39.148v-22.398h2.043 0.003906c0.13672 0 0.26563-0.023437 0.39063-0.058593 0.03125-0.007813 0.058593-0.019531 0.089843-0.027344 0.13281-0.046875 0.25391-0.10156 0.36719-0.17969 0 0 0.003906 0 0.003906-0.003907 1.6758-1.1602 3.5781-1.9492 5.6445-2.3359 3.2695-0.58203 6.6719-0.015625 9.582 1.5938 0.027343 0.015625 0.058593 0.023437 0.089843 0.035156 0.042969 0.019531 0.085938 0.039062 0.13281 0.058594 0.046875 0.015625 0.09375 0.03125 0.14062 0.042968 0.046875 0.011719 0.097656 0.023438 0.14453 0.03125 0.046875 0.007813 0.09375 0.011719 0.13672 0.011719 0.050781 0.003907 0.10547 0.003907 0.15625 0 0.042969-0.003906 0.089843-0.007812 0.13281-0.015625 0.035157-0.003906 0.066407-0.003906 0.10156-0.011718l19.332-4.082c1.9297-0.41016 4.5039-0.070312 5.4023 2.2109 0.78906 2.0742-0.24609 4.3945-2.3086 5.1836l-14.77 5.668c-0.023438 0.007813-0.042969 0.023438-0.066406 0.03125-0.046876 0.019532-0.09375 0.042969-0.13672 0.070313-0.042969 0.023437-0.085938 0.050781-0.125 0.078125-0.039063 0.027344-0.074219 0.054687-0.10938 0.085937-0.039063 0.03125-0.074219 0.066407-0.10938 0.10547-0.03125 0.03125-0.0625 0.066406-0.089844 0.10547-0.03125 0.039062-0.058594 0.078125-0.085937 0.12109-0.027344 0.039063-0.050782 0.082032-0.070313 0.125-0.023437 0.042969-0.042969 0.089844-0.0625 0.13672-0.015625 0.042969-0.03125 0.085938-0.042969 0.13281-0.015625 0.050781-0.027344 0.10547-0.035156 0.15625-0.003906 0.023437-0.011719 0.046875-0.015625 0.066406s0 0.039062 0 0.0625c-0.003906 0.054688-0.003906 0.10938-0.003906 0.16406 0 0.046876 0.003906 0.09375 0.007812 0.14063 0.007813 0.046874 0.015625 0.09375 0.023438 0.14062 0.011719 0.054688 0.023437 0.10547 0.042969 0.15625 0.007812 0.019532 0.007812 0.039063 0.015624 0.058594 0.003907 0.015625 0.015626 0.023438 0.023438 0.039063 0.054688 0.12891 0.11719 0.24609 0.20312 0.35547 0.007813 0.011718 0.019531 0.019531 0.027344 0.03125 0.078125 0.09375 0.17188 0.17578 0.26953 0.24609 0.023438 0.015625 0.042969 0.03125 0.066406 0.050781 0.10938 0.070313 0.22656 0.12891 0.35547 0.16797 0.019531 0.007813 0.039063 0.007813 0.058594 0.015625 0.070312 0.019532 0.13672 0.039063 0.21094 0.046875l10.887 1.3594c0.24609 0.03125 0.49219 0 0.72266-0.089844l21.992-8.4336c0.054687-0.019531 0.10547-0.035157 0.15234-0.058594l4.6992-1.8008c0.11328-0.027344 0.21875-0.070313 0.31641-0.12109l3.9609-1.5195c1.1445-0.4375 2.3906-0.39844 3.5078 0.10547 1.0977 0.49609 1.9336 1.3867 2.3555 2.5195 0.87891 2.293-0.28125 4.875-2.6523 5.8828zm-14.648-67.754c-0.078125-0.82422 0.52344-1.5586 1.3477-1.6367 2.668-0.25 5.2031 1.082 6.4766 3.4102 1.2891 2.3594 1.0586 5.2305-0.59375 7.3203-0.29688 0.375-0.73438 0.57031-1.1797 0.57031-0.32422 0-0.65234-0.10547-0.92969-0.32422-0.64844-0.51172-0.76172-1.457-0.24609-2.1055 0.90234-1.1445 1.0273-2.7227 0.31641-4.0195-0.69531-1.2734-2.0859-2.0039-3.5586-1.8633-0.82031 0.078124-1.5508-0.52734-1.6328-1.3516z"/>

    </g><g data-name="business_name" fill="#11111f" data="id:40" transform="translate(9.959082841014737,165.55006147350807) scale(0.9448693304211513)"><path d="M15.04,19.12q2.6,0,4.2,0.78t3,1.82q0.52,0.4,0.8,0.4q0.76,0,1-2.44l0.92,0q-0.08,1.48-0.12,3.6t-0.04,5.6l-0.92,0q-0.28-1.68-0.68-3.24t-1.32-2.68q-1.16-1.48-3.04-2.3t-3.88-0.82t-3.62,0.98t-2.78,2.82t-1.78,4.42t-0.62,5.82q0,7.2,2.32,10.54t7.2,3.34q1.44,0,2.5-0.42t1.66-0.82q0.76-0.52,0.96-0.98t0.2-1.22l0-3.84q0-1.64-0.32-2.44t-1.18-1.08t-2.54-0.32l0-0.8q0.72,0.04,1.68,0.06t2.02,0.04t1.94,0.02q1.32,0,2.38-0.04t1.78-0.08l0,0.8q-0.88,0.04-1.32,0.28t-0.58,0.96t-0.14,2.2l0,7.92l-0.8,0q-0.04-0.68-0.3-1.48t-0.78-0.8q-0.24,0-0.48,0.12t-0.84,0.56q-1.32,1-2.8,1.58t-3.44,0.58q-4.12,0-7.06-1.7t-4.5-4.9t-1.56-7.64q0-4.68,1.68-8.08t4.58-5.26t6.62-1.86z M41.72,26.84q1.08,0,1.9,0.44t1.28,1.14t0.46,1.58q0,1-0.62,1.76t-1.66,0.76q-0.84,0-1.48-0.54t-0.64-1.54q0-0.76,0.42-1.3t0.94-0.86q-0.28-0.4-0.84-0.4q-1.24,0-2.28,0.74t-1.76,1.9t-1.12,2.46t-0.4,2.42l0,8.48q0,1.96,1.14,2.62t3.1,0.66l0,0.84q-0.92-0.04-2.6-0.1t-3.56-0.06q-1.36,0-2.7,0.06t-2.02,0.1l0-0.84q1.64,0,2.34-0.6t0.7-2.28l0-12.52q0-1.8-0.64-2.66t-2.4-0.86l0-0.84q1.28,0.12,2.48,0.12q1.16,0,2.22-0.14t1.94-0.42l0,5q0.44-1.16,1.26-2.34t1.98-1.98t2.56-0.8z M56.88,26.84q2.56,0,4.6,1.12t3.26,3.52t1.22,6.24t-1.22,6.22t-3.26,3.5t-4.6,1.12q-2.52,0-4.58-1.12t-3.28-3.5t-1.22-6.22t1.22-6.24t3.28-3.52t4.58-1.12z M56.88,27.64q-2.28,0-3.74,2.36t-1.46,7.72t1.46,7.7t3.74,2.34t3.74-2.34t1.46-7.7t-1.46-7.72t-3.74-2.36z M79,26.84q1.28,0,2.48,0.32t2.16,0.96q0.92,0.6,1.4,1.38t0.48,1.7q0,1.08-0.6,1.66t-1.52,0.58q-0.88,0-1.54-0.52t-0.66-1.48q0-0.92,0.5-1.48t1.18-0.72q-0.4-0.72-1.42-1.2t-2.18-0.48q-1,0-2,0.48t-1.84,1.58t-1.36,3t-0.52,4.74q0,3.52,0.8,5.6t2.1,2.98t2.86,0.9q1.04,0,2.12-0.4t2.04-1.3t1.64-2.42l0.76,0.28q-0.4,1.28-1.32,2.58t-2.4,2.14t-3.64,0.84q-2.48,0-4.48-1.28t-3.18-3.66t-1.18-5.66t1.18-5.78t3.3-3.92t4.84-1.42z M98.16,26.84q3.52,0,5.5,2.14t1.98,6.66l-14.12,0l-0.04-0.76l10.32,0q0.08-1.96-0.32-3.62t-1.26-2.66t-2.22-1q-1.84,0-3.26,1.84t-1.7,5.84l0.12,0.16q-0.08,0.6-0.12,1.32t-0.04,1.44q0,2.72,0.88,4.68t2.3,2.98t2.94,1.02q1.2,0,2.28-0.38t2-1.26t1.6-2.36l0.8,0.32q-0.44,1.32-1.44,2.56t-2.52,2.02t-3.52,0.78q-2.88,0-4.94-1.32t-3.16-3.66t-1.1-5.38q0-3.52,1.12-6.06t3.16-3.92t4.76-1.38z M121.12,26.84q1.08,0,1.9,0.44t1.28,1.14t0.46,1.58q0,1-0.62,1.76t-1.66,0.76q-0.84,0-1.48-0.54t-0.64-1.54q0-0.76,0.42-1.3t0.94-0.86q-0.28-0.4-0.84-0.4q-1.24,0-2.28,0.74t-1.76,1.9t-1.12,2.46t-0.4,2.42l0,8.48q0,1.96,1.14,2.62t3.1,0.66l0,0.84q-0.92-0.04-2.6-0.1t-3.56-0.06q-1.36,0-2.7,0.06t-2.02,0.1l0-0.84q1.64,0,2.34-0.6t0.7-2.28l0-12.52q0-1.8-0.64-2.66t-2.4-0.86l0-0.84q1.28,0.12,2.48,0.12q1.16,0,2.22-0.14t1.94-0.42l0,5q0.44-1.16,1.26-2.34t1.98-1.98t2.56-0.8z M145.08,27.4l0,0.8q-0.76,0.08-1.4,0.68t-1.2,2.12l-6.56,17.2l-0.68,0l-7.36-17.72q-0.76-1.56-1.5-1.9t-1.22-0.34l0-0.84q0.88,0.12,1.84,0.18t2.08,0.06q1.24,0,2.62-0.08t2.58-0.16l0,0.84q-1,0-1.78,0.14t-0.98,0.84t0.48,2.38l4.92,12.2l-0.24,0.08l4.56-11.92q0.52-1.32,0.42-2.1t-0.82-1.18t-2.16-0.48l0-0.8q0.72,0.04,1.24,0.06t1.02,0.04t1.1,0.02q0.92,0,1.66-0.04t1.38-0.08z M135.92,48.2l-1.36,3.48q-0.4,1-0.82,1.68t-0.9,1.12q-0.64,0.6-1.52,0.82t-1.6,0.22q-0.76,0-1.38-0.28t-0.98-0.82t-0.36-1.3q0-0.96,0.56-1.54t1.56-0.58q0.84,0,1.44,0.48t0.6,1.4q0,0.68-0.32,1.12t-0.76,0.68q0.08,0.04,0.14,0.04l0.1,0q1.08,0,1.92-0.74t1.48-2.38l1.44-3.72z M160.52,19.12q2.6,0,4.2,0.78t3,1.82q0.52,0.4,0.8,0.4q0.76,0,1-2.44l0.92,0q-0.08,1.48-0.12,3.6t-0.04,5.6l-0.92,0q-0.28-1.68-0.68-3.24t-1.32-2.68q-1.16-1.48-3.04-2.3t-3.88-0.82t-3.62,0.98t-2.78,2.82t-1.78,4.42t-0.62,5.82q0,7.2,2.32,10.54t7.2,3.34q1.44,0,2.5-0.42t1.66-0.82q0.76-0.52,0.96-0.98t0.2-1.22l0-3.84q0-1.64-0.32-2.44t-1.18-1.08t-2.54-0.32l0-0.8q0.72,0.04,1.68,0.06t2.02,0.04t1.94,0.02q1.32,0,2.38-0.04t1.78-0.08l0,0.8q-0.88,0.04-1.32,0.28t-0.58,0.96t-0.14,2.2l0,7.92l-0.8,0q-0.04-0.68-0.3-1.48t-0.78-0.8q-0.24,0-0.48,0.12t-0.84,0.56q-1.32,1-2.8,1.58t-3.44,0.58q-4.12,0-7.06-1.7t-4.5-4.9t-1.56-7.64q0-4.68,1.68-8.08t4.58-5.26t6.62-1.86z M184.48,26.84q3.52,0,5.5,2.14t1.98,6.66l-14.12,0l-0.04-0.76l10.32,0q0.08-1.96-0.32-3.62t-1.26-2.66t-2.22-1q-1.84,0-3.26,1.84t-1.7,5.84l0.12,0.16q-0.08,0.6-0.12,1.32t-0.04,1.44q0,2.72,0.88,4.68t2.3,2.98t2.94,1.02q1.2,0,2.28-0.38t2-1.26t1.6-2.36l0.8,0.32q-0.44,1.32-1.44,2.56t-2.52,2.02t-3.52,0.78q-2.88,0-4.94-1.32t-3.16-3.66t-1.1-5.38q0-3.52,1.12-6.06t3.16-3.92t4.76-1.38z M208.44,26.84q1.52,0,2.54,0.4t1.7,1.12q0.76,0.8,1.08,2t0.32,3.24l0,10.68q0,1.68,0.7,2.28t2.34,0.6l0,0.84q-0.68-0.04-2.08-0.1t-2.72-0.06t-2.58,0.06t-1.9,0.1l0-0.84q1.44,0,2.04-0.6t0.6-2.28l0-11.56q0-1.24-0.2-2.28t-0.9-1.68t-2.14-0.64q-1.68,0-2.94,0.96t-1.96,2.62t-0.7,3.7l0,8.88q0,1.68,0.6,2.28t2.04,0.6l0,0.84q-0.64-0.04-1.9-0.1t-2.58-0.06t-2.72,0.06t-2.08,0.1l0-0.84q1.64,0,2.34-0.6t0.7-2.28l0-12.52q0-1.8-0.64-2.66t-2.4-0.86l0-0.84q1.28,0.12,2.48,0.12q1.16,0,2.22-0.14t1.94-0.42l0,4.72q1.04-2.72,2.9-3.78t3.9-1.06z M223.44,17.4q1.04,0,1.8,0.76t0.76,1.8t-0.76,1.8t-1.8,0.76t-1.8-0.76t-0.76-1.8t0.76-1.8t1.8-0.76z M225.52,26.96l0,17.32q0,1.68,0.7,2.28t2.34,0.6l0,0.84q-0.68-0.04-2.06-0.1t-2.78-0.06q-1.36,0-2.76,0.06t-2.08,0.1l0-0.84q1.64,0,2.34-0.6t0.7-2.28l0-12.52q0-1.8-0.64-2.66t-2.4-0.86l0-0.84q1.28,0.12,2.48,0.12q1.16,0,2.22-0.14t1.94-0.42z M240.32,26.84q3.52,0,5.5,2.14t1.98,6.66l-14.12,0l-0.04-0.76l10.32,0q0.08-1.96-0.32-3.62t-1.26-2.66t-2.22-1q-1.84,0-3.26,1.84t-1.7,5.84l0.12,0.16q-0.08,0.6-0.12,1.32t-0.04,1.44q0,2.72,0.88,4.68t2.3,2.98t2.94,1.02q1.2,0,2.28-0.38t2-1.26t1.6-2.36l0.8,0.32q-0.44,1.32-1.44,2.56t-2.52,2.02t-3.52,0.78q-2.88,0-4.94-1.32t-3.16-3.66t-1.1-5.38q0-3.52,1.12-6.06t3.16-3.92t4.76-1.38z"/></g></svg>