<svg xmlns="http://www.w3.org/2000/svg" xmlns:xlink="http://www.w3.org/1999/xlink" width="400" height="400" viewBox="0 0 400 400"><defs><linearGradient id="gradient-14" x1="0%" y1="0%" x2="100%" y2="0%" gradientTransform="rotate(109.6, 0.5, 0.5)">       <stop offset="11.2%" stop-color="rgba(162, 2, 63, 1)"/>       <stop offset="53.6%" stop-color="rgba(231, 62, 68, 1)"/>       <stop offset="91.1%" stop-color="rgba(255, 129, 79, 1)"/>     </linearGradient></defs>
<rect data-name="background" width="100%" height="100%" fill="none"/><g data-name="icon" fill="url(#gradient-14)" data="id:7699354" transform="translate(268.03742617846586,139.4108430647265) scale(1.2118804577304554)">
    
 <path d="m98.496 72.703c-0.69922-1.875-2.0938-3.3633-3.9258-4.1914-1.8516-0.83984-3.9141-0.89844-5.8125-0.17188l-2.1914 0.83984-0.64844-11.508c0.054687-0.15234 0.089843-0.31641 0.089843-0.48828 0-0.23438-0.058593-0.44922-0.15234-0.64844l-1.2109-21.414c-0.09375-2.0742-1.8086-3.6992-3.9062-3.6992h-1.168l2.9648-2.0117c0.5625 0.35938 1.1758 0.64844 1.8398 0.83984 0.66016 0.19141 1.332 0.28516 1.9961 0.28516 2.4414 0 4.7656-1.2578 6.0547-3.4141 1.3945-2.3047 1.3438-5.1719-0.023437-7.4023 1.4336-1.7344 1.9023-4.1328 1.1523-6.3555-0.73828-2.1875-2.5508-3.7969-4.7344-4.3203-0.12891-2.3828-1.4297-4.5469-3.5586-5.7656-2.0781-1.2227-4.6406-1.2656-6.7695-0.19922-1.543-1.6328-3.8398-2.4023-6.1211-1.957-2.2773 0.44922-4.125 2.0625-4.9336 4.1992-2.6094-0.10156-5.1016 1.293-6.4141 3.6719-1.5273 2.8086-0.99609 6.3203 1.3125 8.5586 0.48437 0.45312 1.0195 0.82812 1.5859 1.125l-0.42188 4.4727c-0.43359-0.28516-0.89062-0.53516-1.3633-0.75781 0.36328-0.36719 0.6875-0.77734 0.95703-1.2305 0.42188-0.71484 0.1875-1.6328-0.52734-2.0547-0.71094-0.42578-1.6328-0.1875-2.0547 0.52344-0.36719 0.61719-0.91016 1.0938-1.5469 1.3906v-1.5625c0-0.82812-0.67188-1.5-1.5-1.5s-1.5 0.67188-1.5 1.5v1.5625c-0.625-0.29297-1.1602-0.76562-1.5078-1.3711-0.41406-0.71875-1.3281-0.96484-2.0469-0.55469s-0.96875 1.3281-0.55469 2.0469c0.26172 0.45703 0.58594 0.87109 0.94531 1.2422-0.25781 0.12109-0.51562 0.25-0.76172 0.39063-0.375-0.76172-0.74609-1.5156-1.1367-2.25-0.03125-0.10938-0.074219-0.21484-0.13281-0.31641-0.050781-0.085937-0.10547-0.16016-0.16797-0.23047-0.39453-0.73047-0.78516-1.4727-1.1914-2.1719-1.8867-3.2891-4.0078-6.5781-7.332-7.4766-1.0078-0.26953-2.0508-0.28516-3.1172-0.0625 0.16016-0.64844 0.24609-1.3203 0.24609-2.0039 0-2.8398-1.4219-5.4609-3.8008-7.0117-0.49609-0.32422-1.1406-0.32422-1.6367 0-1.7734 1.1562-3.0117 2.9062-3.5273 4.8984-1.9688-0.52734-4.1289-0.34375-5.9805 0.57031-0.54297 0.26953-0.87109 0.83594-0.83594 1.4414 0.17969 2.8477 1.7422 5.3867 4.1836 6.793 0.59375 0.33984 1.2227 0.59375 1.8672 0.78125-0.73437 0.8125-1.25 1.7266-1.5195 2.7383-0.58203 2.1758-0.015625 4.418 0.97656 6.6289 0.03125 0.10156 0.074218 0.19922 0.12891 0.29688 0.003906 0.003906 0.007812 0.007812 0.011719 0.015624 0.49609 1.0625 1.0859 2.1211 1.6875 3.1523 0.54297 0.94922 1.125 1.9062 1.7305 2.8594h-1.5039c-2.0547 0-3.7695 1.6094-3.9062 3.6836l-1.2227 21.812c-0.015625 0.089844-0.027344 0.17969-0.027344 0.26953 0 0.027344 0.007813 0.050782 0.007813 0.078125l-0.48438 8.6797c-1.3477 0.46484-2.6172 1.0781-3.8008 1.8477h-1.7227c-0.375-1.6055-1.8203-2.8086-3.5508-2.8086l-11.629-0.003906c-2.0156 0-3.6523 1.625-3.6523 3.625v26.762c0 2 1.6406 3.625 3.6523 3.625h11.621c1.7305 0 3.1758-1.1992 3.5508-2.8047h39.25c2.0117 0 3.7695-0.35938 5.7227-1.1719l29.422-12.613c3.8594-1.6484 5.7344-5.9141 4.2773-9.7031zm-81.566 22.664c0 0.33984-0.30078 0.625-0.65234 0.625h-11.625c-0.35547 0-0.65234-0.28516-0.65234-0.625v-26.762c0-0.33984 0.30078-0.625 0.65234-0.625h11.621c0.35547 0 0.65234 0.28516 0.65234 0.625zm57.758-64.262c-0.14453 0.09375-0.28516 0.21094-0.42578 0.31641h-5.8477c-0.17187-2.1133-0.94531-4.0508-2.1484-5.6562l0.59375-6.2969c0.85547 0.046875 1.7227-0.046875 2.5508-0.3125 0.67969 1.0508 1.7539 2.1289 3.1133 3.1211l-1.1523 2.8711c-0.43359 0.99219-0.23828 2.1523 0.49609 2.9492 0.53906 0.58984 1.2812 0.90625 2.0469 0.90625 0.25781 0 0.51953-0.035156 0.77734-0.10938l5.668-1.6328zm-0.38281-5.2266 0.84375-2.1016c1.0625 0.46484 2.0898 0.80078 3.0352 0.98438zm-10.652-15.449c0.89453-1.625 2.7578-2.4453 4.5234-1.9922 0.41406 0.10547 0.85156 0.03125 1.207-0.20703 0.35547-0.23828 0.58984-0.61328 0.64844-1.0352 0.22266-1.5742 1.3945-2.832 2.9102-3.1289 1.543-0.30859 3.1055 0.41016 3.8828 1.7695 0.21875 0.38281 0.59375 0.64844 1.0273 0.73047 0.43359 0.078125 0.87891-0.03125 1.2188-0.3125 1.3398-1.0898 3.2148-1.2422 4.668-0.38672 0.003907 0.003906 0.007813 0.003906 0.011719 0.007812s0.007812 0.003906 0.011719 0.007812c1.4922 0.85156 2.2812 2.5195 2.0078 4.2422-0.070312 0.43359 0.054688 0.875 0.33984 1.2109 0.28516 0.33203 0.70312 0.52344 1.1406 0.52344 1.5664 0 2.957 0.99219 3.4531 2.4688 0.50391 1.4883 0.015625 3.1172-1.2148 4.0508-0.33984 0.25781-0.55469 0.64844-0.58984 1.0742-0.035157 0.42578 0.11328 0.84766 0.41016 1.1562 1.2773 1.3398 1.4961 3.3789 0.53516 4.9727-0.94141 1.5742-2.8516 2.3125-4.6445 1.793-1.7734-0.51562-2.9844-2.168-2.9414-4.0234 0.011719-0.48047-0.20703-0.93359-0.58594-1.2227-0.26562-0.20312-0.58594-0.3125-0.91406-0.3125-0.14062 0-0.28125 0.019532-0.41797 0.058594-0.80078 0.23438-2.7891-0.15234-5.043-1.3398-2.168-1.3398-3.5078-2.875-3.7109-3.7031-0.11328-0.46484-0.44141-0.84766-0.88281-1.0273-0.44141-0.18359-0.94141-0.14453-1.3516 0.10156-1.5703 0.94922-3.6133 0.72656-4.9531-0.53125-1.3242-1.2852-1.6289-3.3242-0.74609-4.9453zm-11.312 15.762c0.019531-0.015625 0.03125-0.03125 0.050781-0.042968 1.3203-1.0859 2.9961-1.75 4.8203-1.8047 0.085937 0.003906 0.16797 0.015625 0.25 0.015625 0.085937 0 0.16797-0.015625 0.25-0.015625 3.9883 0.125 7.25 3.1758 7.6914 7.0781l-15.883-0.003906c0.23828-2.0938 1.2852-3.9414 2.8203-5.2266zm-17.754-21.777c1.0273 1 1.6172 2.375 1.6172 3.8438 0 1.4648-0.58984 2.8359-1.6133 3.8359-0.019532-0.019531-0.042969-0.042969-0.066406-0.0625-0.21875-0.21875-0.41797-0.45312-0.58984-0.70312-0.023438-0.035156-0.046875-0.070313-0.070313-0.10547-0.17578-0.26562-0.33203-0.54297-0.45703-0.83594-0.011719-0.027344-0.023438-0.0625-0.035156-0.089844-0.125-0.30469-0.22266-0.61719-0.28906-0.9375-0.003906-0.023437-0.007812-0.046875-0.011719-0.066406-0.066406-0.33594-0.10547-0.67969-0.10547-1.0312 0.003906-1.4727 0.59375-2.8477 1.6211-3.8477zm-5.4883 7.9297c-1.2539-0.72266-2.1484-1.9219-2.5117-3.3203 1.1484-0.31641 2.3594-0.24609 3.4375 0.1875 0.003906 0.015624 0.007812 0.03125 0.007812 0.046874 0.019531 0.17188 0.058594 0.33594 0.089844 0.50391 0.03125 0.17578 0.058594 0.35547 0.10156 0.52734 0.035156 0.14453 0.089844 0.28516 0.13281 0.42969 0.058593 0.1875 0.10938 0.37891 0.17969 0.5625 0.050782 0.12891 0.11328 0.24609 0.16797 0.37109 0.085937 0.1875 0.16406 0.38281 0.26172 0.5625 0.066406 0.125 0.14844 0.23828 0.21875 0.35938 0.097656 0.16016 0.1875 0.32422 0.29297 0.48047-0.83203-0.046876-1.6484-0.29297-2.3789-0.71094zm3.2422 12.887 7.8984-4.5625c0.71875-0.41406 0.96484-1.332 0.54688-2.0508-0.41406-0.71875-1.3281-0.96484-2.0508-0.55078l-7.6094 4.3945c-0.37891-1.1562-0.53516-2.2539-0.27734-3.2266 0.28516-1.0625 1.0625-1.9492 2.3867-2.7109l2.3359-1.3516c0.003907-0.003906 0.007813-0.003906 0.011719-0.003906 0.003907-0.003907 0.007813-0.007813 0.015625-0.011719l2.1445-1.2383c1.3203-0.76172 2.4805-0.98828 3.5469-0.69922 2.2188 0.60156 3.9414 3.3281 5.5156 6.0781 0.20703 0.35547 0.40234 0.74219 0.60937 1.1094l-8.082 4.6641c-0.71875 0.41406-0.96484 1.332-0.55078 2.0508 0.27734 0.48047 0.78125 0.75 1.3008 0.75 0.25391 0 0.51172-0.0625 0.74609-0.19922l7.9961-4.6133c0.26562 0.51953 0.52344 1.0508 0.78125 1.5859-1.7422 1.7812-2.8828 4.1484-3.0977 6.7812l-10.43-0.007812c-0.96875-1.4453-1.8867-2.9023-2.7148-4.3555-0.35547-0.60547-0.69922-1.2188-1.0234-1.832zm-3.5781 33.453h40.633c0.82812 0 1.5-0.67188 1.5-1.5s-0.67188-1.5-1.5-1.5h-40.465l1.1445-20.395c0.03125-0.48437 0.43359-0.86719 0.91406-0.86719h49.746c0.48047 0 0.89062 0.375 0.91016 0.85156l1.1523 20.41h-7.3086c-0.82812 0-1.5 0.67188-1.5 1.5s0.67188 1.5 1.5 1.5h7.4766l0.65625 11.625-3.6992 1.418-13.199 0.003907c0.5-1.4883 0.50391-3.1602-0.097656-4.7461-1.2891-3.2773-4.8359-4.9102-8.8203-4.0625l-18.824 3.9688c-3.2539-1.6602-6.9648-2.2656-10.582-1.7188zm43.34 16.047-14.117 5.4102-4.5703-0.57031 9.1719-3.5195c0.82031-0.3125 1.5391-0.76953 2.1562-1.3203zm20.938 4.9141-29.406 12.609c-1.5742 0.65234-2.9375 0.93359-4.5547 0.93359h-39.148v-22.398h2.043 0.003906c0.13672 0 0.26563-0.023437 0.39063-0.058593 0.03125-0.007813 0.058593-0.019531 0.089843-0.027344 0.13281-0.046875 0.25391-0.10156 0.36719-0.17969 0 0 0.003906 0 0.003906-0.003907 1.6758-1.1602 3.5781-1.9492 5.6445-2.3359 3.2695-0.58203 6.6719-0.015625 9.582 1.5938 0.027343 0.015625 0.058593 0.023437 0.089843 0.035156 0.042969 0.019531 0.085938 0.039062 0.13281 0.058594 0.046875 0.015625 0.09375 0.03125 0.14062 0.042968 0.046875 0.011719 0.097656 0.023438 0.14453 0.03125 0.046875 0.007813 0.09375 0.011719 0.13672 0.011719 0.050781 0.003907 0.10547 0.003907 0.15625 0 0.042969-0.003906 0.089843-0.007812 0.13281-0.015625 0.035157-0.003906 0.066407-0.003906 0.10156-0.011718l19.332-4.082c1.9297-0.41016 4.5039-0.070312 5.4023 2.2109 0.78906 2.0742-0.24609 4.3945-2.3086 5.1836l-14.77 5.668c-0.023438 0.007813-0.042969 0.023438-0.066406 0.03125-0.046876 0.019532-0.09375 0.042969-0.13672 0.070313-0.042969 0.023437-0.085938 0.050781-0.125 0.078125-0.039063 0.027344-0.074219 0.054687-0.10938 0.085937-0.039063 0.03125-0.074219 0.066407-0.10938 0.10547-0.03125 0.03125-0.0625 0.066406-0.089844 0.10547-0.03125 0.039062-0.058594 0.078125-0.085937 0.12109-0.027344 0.039063-0.050782 0.082032-0.070313 0.125-0.023437 0.042969-0.042969 0.089844-0.0625 0.13672-0.015625 0.042969-0.03125 0.085938-0.042969 0.13281-0.015625 0.050781-0.027344 0.10547-0.035156 0.15625-0.003906 0.023437-0.011719 0.046875-0.015625 0.066406s0 0.039062 0 0.0625c-0.003906 0.054688-0.003906 0.10938-0.003906 0.16406 0 0.046876 0.003906 0.09375 0.007812 0.14063 0.007813 0.046874 0.015625 0.09375 0.023438 0.14062 0.011719 0.054688 0.023437 0.10547 0.042969 0.15625 0.007812 0.019532 0.007812 0.039063 0.015624 0.058594 0.003907 0.015625 0.015626 0.023438 0.023438 0.039063 0.054688 0.12891 0.11719 0.24609 0.20312 0.35547 0.007813 0.011718 0.019531 0.019531 0.027344 0.03125 0.078125 0.09375 0.17188 0.17578 0.26953 0.24609 0.023438 0.015625 0.042969 0.03125 0.066406 0.050781 0.10938 0.070313 0.22656 0.12891 0.35547 0.16797 0.019531 0.007813 0.039063 0.007813 0.058594 0.015625 0.070312 0.019532 0.13672 0.039063 0.21094 0.046875l10.887 1.3594c0.24609 0.03125 0.49219 0 0.72266-0.089844l21.992-8.4336c0.054687-0.019531 0.10547-0.035157 0.15234-0.058594l4.6992-1.8008c0.11328-0.027344 0.21875-0.070313 0.31641-0.12109l3.9609-1.5195c1.1445-0.4375 2.3906-0.39844 3.5078 0.10547 1.0977 0.49609 1.9336 1.3867 2.3555 2.5195 0.87891 2.293-0.28125 4.875-2.6523 5.8828zm-14.648-67.754c-0.078125-0.82422 0.52344-1.5586 1.3477-1.6367 2.668-0.25 5.2031 1.082 6.4766 3.4102 1.2891 2.3594 1.0586 5.2305-0.59375 7.3203-0.29688 0.375-0.73438 0.57031-1.1797 0.57031-0.32422 0-0.65234-0.10547-0.92969-0.32422-0.64844-0.51172-0.76172-1.457-0.24609-2.1055 0.90234-1.1445 1.0273-2.7227 0.31641-4.0195-0.69531-1.2734-2.0859-2.0039-3.5586-1.8633-0.82031 0.078124-1.5508-0.52734-1.6328-1.3516z"/>

    </g><g data-name="business_name" fill="#11111f" data="id:90" transform="translate(9.444305365249646,149.8231418997586) scale(0.9983189828191296)"><path d="M36.5,39.66q0.3,0.5,0.3,1.26q0,0.92-0.28,1.44t-0.88,0.92q-2.36,1.56-7.52,5.12q-1.56,8.28-4.04,13.04t-6.28,4.76q-2.04,0-3.32-1.26t-1.28-3.3q0-1.88,0.84-3.8t3.14-4.44t6.5-5.76l0.12-0.76q-3.16,1.32-6.2,1.32q-4.48,0-7.88-1.74t-5.28-4.94t-1.88-7.44q0-5.92,2.24-10.46t6.18-7.04t8.82-2.5q4.68,0,7.02,2.18t2.34,5.78q0,2.36-0.86,3.78t-2.46,1.42q-1.08,0-1.74-0.52t-0.66-1.44q0-0.4,0.16-1.36q0.24-1.12,0.24-1.76q0-1.68-1.02-2.6t-3.42-0.92q-2.92,0-5.42,1.68t-4.02,5.02t-1.52,8.02q0,4.8,2.62,7.42t7.58,2.62q2.76,0,5.76-1.24l0.56-4.88l-4.08,0q-1.12,0-1.72-0.54t-0.6-1.78q0-1.12,0.6-1.76t1.6-0.64l7.48,0q0.88,0,1.46,0.58t0.46,1.66q-0.12,1.28-0.8,5.8l-0.44,3.04q3.2-2.4,5.84-4.16q0.52-0.32,0.92-0.32q0.52,0,0.82,0.5z M20.52,59.96q1.24-2.36,2.32-7.6q-3.04,2.6-4.38,4.7t-1.34,3.7q0,1.56,1.12,1.56q1.04,0,2.28-2.36z M35.06,46.6q-0.62-1.6-0.62-5.12q0-5.2,1.48-9.88q0.36-1.16,1.18-1.7t2.3-0.54q0.8,0,1.12,0.2t0.32,0.76q0,0.64-0.6,2.88q-0.4,1.6-0.64,2.8t-0.4,2.96q1.32-3.44,2.96-5.6t3.22-3.08t2.9-0.92q2.6,0,2.6,2.6q0,0.52-0.36,2.52q-0.32,1.6-0.32,2q0,1.4,1,1.4q1.12,0,2.88-1.76q0.52-0.52,1.08-0.52q0.52,0,0.82,0.46t0.3,1.22q0,1.48-0.8,2.32q-1.12,1.16-2.62,1.98t-3.18,0.82q-2.12,0-3.22-1.08t-1.1-2.92q0-0.6,0.12-1.2q0.08-0.8,0.08-1.08q0-0.64-0.44-0.64q-0.6,0-1.58,1.34t-1.94,3.54t-1.56,4.64q-0.44,1.88-1.02,2.54t-1.82,0.66q-1.52,0-2.14-1.6z M73.76,36.24q0.28,0.52,0.28,1.32q0,1.92-1.16,2.28q-2.4,0.84-5.28,0.96q-0.76,3.36-3,5.38t-5.08,2.02q-2.4,0-4.1-1.16t-2.58-3.08t-0.88-4.16q0-3.04,1.16-5.42t3.2-3.72t4.52-1.34q3.04,0,4.9,2.1t2.18,5.18q1.88-0.12,4.48-0.8q0.32-0.08,0.56-0.08q0.52,0,0.8,0.52z M62.06,42.92q0.94-1.04,1.26-3q-1.24-0.84-1.9-2.2t-0.66-2.88q0-0.64,0.12-1.28l-0.2,0q-1.6,0-2.66,1.54t-1.06,4.34q0,2.2,0.86,3.36t2.02,1.16q1.28,0,2.22-1.04z M72.14,45.98q-2.18-2.22-2.18-5.86q0-3.24,1.28-5.68t3.32-3.76t4.28-1.32q2.2,0,3.42,1.3t1.22,3.34q0,1.68-0.74,2.84t-1.94,1.16q-0.76,0-1.22-0.36t-0.46-1q0-0.28,0.08-0.64t0.12-0.52q0.2-0.6,0.2-1.12t-0.26-0.8t-0.74-0.28q-0.92,0-1.72,0.82t-1.28,2.22t-0.48,3.08q0,4.64,4.04,4.64q1.64,0,3.54-1.1t3.74-3.3q0.48-0.56,1.08-0.56q0.52,0,0.82,0.48t0.3,1.32q0,1.52-0.76,2.48q-1.88,2.32-4.5,3.58t-5.06,1.26q-3.92,0-6.1-2.22z M103.98,39.56q0.3,0.48,0.3,1.32q0,1.6-0.76,2.48q-1.48,1.8-4.18,3.32t-5.78,1.52q-4.2,0-6.52-2.28t-2.32-6.24q0-2.76,1.16-5.14t3.22-3.78t4.66-1.4q2.32,0,3.72,1.38t1.4,3.74q0,2.76-1.98,4.74t-6.7,3.14q1,1.84,3.8,1.84q1.8,0,4.1-1.26t3.98-3.3q0.48-0.56,1.08-0.56q0.52,0,0.82,0.48z M90.58,35q-1.02,1.72-1.02,4.16l0,0.08q2.36-0.56,3.72-1.68t1.36-2.6q0-0.76-0.42-1.22t-1.14-0.46q-1.48,0-2.5,1.72z M101.74,46.6q-0.62-1.6-0.62-5.12q0-5.2,1.48-9.88q0.36-1.16,1.18-1.7t2.3-0.54q0.8,0,1.12,0.2t0.32,0.76q0,0.64-0.6,2.88q-0.4,1.6-0.64,2.8t-0.4,2.96q1.32-3.44,2.96-5.6t3.22-3.08t2.9-0.92q2.6,0,2.6,2.6q0,0.52-0.36,2.52q-0.32,1.6-0.32,2q0,1.4,1,1.4q1.12,0,2.88-1.76q0.52-0.52,1.08-0.52q0.52,0,0.82,0.46t0.3,1.22q0,1.48-0.8,2.32q-1.12,1.16-2.62,1.98t-3.18,0.82q-2.12,0-3.22-1.08t-1.1-2.92q0-0.6,0.12-1.2q0.08-0.8,0.08-1.08q0-0.64-0.44-0.64q-0.6,0-1.58,1.34t-1.94,3.54t-1.56,4.64q-0.44,1.88-1.02,2.54t-1.82,0.66q-1.52,0-2.14-1.6z M140.54,39.66q0.3,0.5,0.3,1.26q0,0.92-0.28,1.44t-0.88,0.92l-7.68,5.16q-1.52,8.28-3.98,13.02t-6.26,4.74q-2.04,0-3.32-1.26t-1.28-3.3q0-1.88,0.86-3.84t3.2-4.5t6.62-5.82l0.12-0.92q0.28-1.48,0.64-4.24q-0.8,2.88-2.24,4.38t-3.04,1.5q-1.8,0-2.94-1.66t-1.14-4.14q0-3,0.4-5.5t1.32-5.3q0.4-1.2,1.12-1.72t2.28-0.52q0.88,0,1.22,0.28t0.34,0.84q0,0.32-0.44,2.16q-0.4,1.48-0.64,2.68q-0.32,1.64-0.56,3.14t-0.24,2.46q0,1.52,0.84,1.52q0.6,0,1.5-1.2t1.92-3.64t1.98-6q0.32-1.2,0.98-1.72t1.98-0.52q0.92,0,1.28,0.24t0.36,0.8q0,1-1.04,6.88l-1.04,6.44q3.08-2.32,6-4.24q0.52-0.32,0.92-0.32q0.52,0,0.82,0.5z M124.44,60q1.24-2.32,2.48-7.72q-3.08,2.6-4.46,4.74t-1.38,3.74q0,0.68,0.26,1.12t0.86,0.44q1,0,2.24-2.32z M172.98,39.66q0.3,0.5,0.3,1.26q0,0.92-0.28,1.44t-0.88,0.92q-2.36,1.56-7.52,5.12q-1.56,8.28-4.04,13.04t-6.28,4.76q-2.04,0-3.32-1.26t-1.28-3.3q0-1.88,0.84-3.8t3.14-4.44t6.5-5.76l0.12-0.76q-3.16,1.32-6.2,1.32q-4.48,0-7.88-1.74t-5.28-4.94t-1.88-7.44q0-5.92,2.24-10.46t6.18-7.04t8.82-2.5q4.68,0,7.02,2.18t2.34,5.78q0,2.36-0.86,3.78t-2.46,1.42q-1.08,0-1.74-0.52t-0.66-1.44q0-0.4,0.16-1.36q0.24-1.12,0.24-1.76q0-1.68-1.02-2.6t-3.42-0.92q-2.92,0-5.42,1.68t-4.02,5.02t-1.52,8.02q0,4.8,2.62,7.42t7.58,2.62q2.76,0,5.76-1.24l0.56-4.88l-4.08,0q-1.12,0-1.72-0.54t-0.6-1.78q0-1.12,0.6-1.76t1.6-0.64l7.48,0q0.88,0,1.46,0.58t0.46,1.66q-0.12,1.28-0.8,5.8l-0.44,3.04q3.2-2.4,5.84-4.16q0.52-0.32,0.92-0.32q0.52,0,0.82,0.5z M157,59.96q1.24-2.36,2.32-7.6q-3.04,2.6-4.38,4.7t-1.34,3.7q0,1.56,1.12,1.56q1.04,0,2.28-2.36z M189.5,39.56q0.3,0.48,0.3,1.32q0,1.6-0.76,2.48q-1.48,1.8-4.18,3.32t-5.78,1.52q-4.2,0-6.52-2.28t-2.32-6.24q0-2.76,1.16-5.14t3.22-3.78t4.66-1.4q2.32,0,3.72,1.38t1.4,3.74q0,2.76-1.98,4.74t-6.7,3.14q1,1.84,3.8,1.84q1.8,0,4.1-1.26t3.98-3.3q0.48-0.56,1.08-0.56q0.52,0,0.82,0.48z M176.1,35q-1.02,1.72-1.02,4.16l0,0.08q2.36-0.56,3.72-1.68t1.36-2.6q0-0.76-0.42-1.22t-1.14-0.46q-1.48,0-2.5,1.72z M187.26,46.6q-0.62-1.6-0.62-5.12q0-5.2,1.48-9.88q0.36-1.16,1.18-1.7t2.3-0.54q0.8,0,1.12,0.2t0.32,0.76q0,0.64-0.6,2.88q-0.4,1.6-0.64,2.8t-0.4,2.96q1.32-3.44,2.96-5.6t3.22-3.08t2.9-0.92q2.6,0,2.6,2.6q0,1.56-0.88,5.64q-0.76,3.48-0.76,4.6q0,1.6,1.16,1.6q0.8,0,1.9-0.98t2.94-3.18q0.48-0.56,1.08-0.56q0.52,0,0.82,0.48t0.3,1.32q0,1.6-0.76,2.48q-1.72,2.12-3.7,3.48t-4.5,1.36q-2.04,0-3.08-1.18t-1.04-3.42q0-1.12,0.56-4q0.52-2.52,0.52-3.48q0-0.64-0.44-0.64q-0.52,0-1.46,1.34t-1.92,3.54t-1.58,4.64q-0.44,1.88-1.02,2.54t-1.82,0.66q-1.52,0-2.14-1.6z M209.12,25.94q-0.84-0.78-0.84-2.18t1.1-2.34t2.74-0.94q1.48,0,2.4,0.72t0.92,2.04q0,1.6-1.04,2.54t-2.76,0.94q-1.68,0-2.52-0.78z M207.54,46.36q-1.18-1.84-1.18-4.88q0-1.8,0.46-4.62t1.18-5.26q0.36-1.28,0.96-1.76t1.92-0.48q2.04,0,2.04,1.36q0,1-0.76,4.64q-0.96,4.4-0.96,5.96q0,1.2,0.32,1.84t1.08,0.64q0.72,0,1.8-1t2.88-3.16q0.48-0.56,1.08-0.56q0.52,0,0.82,0.48t0.3,1.32q0,1.6-0.76,2.48q-3.96,4.84-7.4,4.84q-2.6,0-3.78-1.84z M234.9,39.56q0.3,0.48,0.3,1.32q0,1.6-0.76,2.48q-1.48,1.8-4.18,3.32t-5.78,1.52q-4.2,0-6.52-2.28t-2.32-6.24q0-2.76,1.16-5.14t3.22-3.78t4.66-1.4q2.32,0,3.72,1.38t1.4,3.74q0,2.76-1.98,4.74t-6.7,3.14q1,1.84,3.8,1.84q1.8,0,4.1-1.26t3.98-3.3q0.48-0.56,1.08-0.56q0.52,0,0.82,0.48z M221.5,35q-1.02,1.72-1.02,4.16l0,0.08q2.36-0.56,3.72-1.68t1.36-2.6q0-0.76-0.42-1.22t-1.14-0.46q-1.48,0-2.5,1.72z"/></g><g data-name="slogan" fill="#11111f" data="id:289" transform="translate(52.89322164653669,219.31423135816507) scale(0.3475291737332495)"><path d="M14.0625,23.49609375l0,24.47265625l-3.7109375,0l0-24.47265625l-9.453125,0l0-3.046875l22.6171875,0l0,3.046875l-9.453125,0z M30.72265625,36.953125l0,11.015625l-3.515625,0l0-16.2109375q0-1.11328125-0.029296875-2.34375t-0.087890625-2.578125l3.3203125,0q0.0390625,0.8984375,0.068359375,1.62109375t0.048828125,1.259765625t0.029296875,0.8984375t0.009765625,0.537109375l0.078125,0q0.5859375-1.9140625,1.2890625-2.96875q0.68359375-0.9765625,1.5625-1.357421875t2.16796875-0.380859375q0.72265625,0,1.42578125,0.1953125l0,3.22265625q-0.6640625-0.1953125-1.875-0.1953125q-2.1875,0-3.33984375,1.884765625t-1.15234375,5.400390625z M45.83984375,48.359375q-3.18359375,0-4.78515625-1.6796875t-1.6015625-4.609375q0-3.28125,2.158203125-5.0390625t6.962890625-1.875l4.74609375-0.078125l0-1.15234375q0-2.578125-1.09375-3.69140625t-3.4375-1.11328125q-2.36328125,0-3.4375,0.80078125t-1.2890625,2.55859375l-3.671875-0.33203125q0.8984375-5.703125,8.4765625-5.703125q3.984375,0,5.99609375,1.826171875t2.01171875,5.283203125l0,9.1015625q0,1.5625,0.41015625,2.353515625t1.5625,0.791015625q0.546875,0,1.15234375-0.13671875l0,2.1875q-0.6640625,0.15625-1.34765625,0.234375t-1.3671875,0.078125q-1.953125,0-2.841796875-1.025390625t-1.005859375-3.212890625l-0.1171875,0q-1.34765625,2.421875-3.134765625,3.427734375t-4.345703125,1.005859375z M53.3203125,37.5390625l-3.84765625,0.078125q-2.4609375,0.01953125-3.75,0.5078125q-1.2890625,0.46875-1.97265625,1.4453125t-0.68359375,2.55859375q0,1.71875,0.927734375,2.65625t2.646484375,0.9375q1.953125,0,3.4375-0.87890625q1.50390625-0.87890625,2.373046875-2.412109375t0.869140625-3.154296875l0-1.73828125z M70.80078125,48.359375q-4.43359375,0-6.767578125-2.802734375t-2.333984375-8.173828125q0-5.33203125,2.34375-8.134765625t6.71875-2.802734375q3.2421875,0,5.380859375,1.6796875t2.685546875,4.62890625l-3.61328125,0.2734375q-0.2734375-1.7578125-1.38671875-2.79296875t-3.1640625-1.03515625q-2.79296875,0-4.04296875,1.85546875t-1.25,6.25q0,4.21875,1.328125,6.25t4.00390625,2.03125q1.875,0,3.134765625-1.015625t1.552734375-3.125l3.5546875,0.234375q-0.2734375,2.03125-1.357421875,3.53515625t-2.8125,2.32421875t-3.974609375,0.8203125z  M86.2109375,40.44921875l0,7.51953125l-3.515625,0l0-28.984375l3.515625,0l0,18.10546875l9.27734375-10.25390625l4.12109375,0l-8.57421875,9.08203125l9.0234375,12.05078125l-4.12109375,0l-7.1484375-9.6484375z  M117.3046875,18.984375l0,3.359375l-3.515625,0l0-3.359375l3.515625,0z M117.3046875,26.8359375l0,21.1328125l-3.515625,0l0-21.1328125l3.515625,0z M130.8203125,47.8125q-1.71875,0.46875-3.5546875,0.46875q-2.109375,0-3.1640625-1.201171875t-1.0546875-3.583984375l0-14.1015625l-2.44140625,0l0-2.55859375l2.578125,0l1.03515625-4.7265625l2.34375,0l0,4.7265625l3.90625,0l0,2.55859375l-3.90625,0l0,13.33984375q0,1.5234375,0.498046875,2.138671875t1.728515625,0.615234375q0.6640625,0,2.03125-0.2734375l0,2.59765625z M138.57421875,43.69140625l0,4.27734375l-3.80859375,0l0-4.27734375l3.80859375,0z  M177.91015625,28.73046875q0,2.59765625-1.15234375,4.51171875t-3.271484375,2.958984375t-5.048828125,1.044921875l-8.0859375,0l0,10.72265625l-3.73046875,0l0-27.51953125l11.58203125,0q4.62890625,0,7.16796875,2.16796875t2.5390625,6.11328125z M174.16015625,28.76953125q0-5.33203125-6.40625-5.33203125l-7.40234375,0l0,10.859375l7.55859375,0q3.125,0,4.6875-1.376953125t1.5625-4.150390625z M186.23046875,18.984375l0,28.984375l-3.515625,0l0-28.984375l3.515625,0z M196.9921875,48.359375q-3.18359375,0-4.78515625-1.6796875t-1.6015625-4.609375q0-3.28125,2.158203125-5.0390625t6.962890625-1.875l4.74609375-0.078125l0-1.15234375q0-2.578125-1.09375-3.69140625t-3.4375-1.11328125q-2.36328125,0-3.4375,0.80078125t-1.2890625,2.55859375l-3.671875-0.33203125q0.8984375-5.703125,8.4765625-5.703125q3.984375,0,5.99609375,1.826171875t2.01171875,5.283203125l0,9.1015625q0,1.5625,0.41015625,2.353515625t1.5625,0.791015625q0.546875,0,1.15234375-0.13671875l0,2.1875q-0.6640625,0.15625-1.34765625,0.234375t-1.3671875,0.078125q-1.953125,0-2.841796875-1.025390625t-1.005859375-3.212890625l-0.1171875,0q-1.34765625,2.421875-3.134765625,3.427734375t-4.345703125,1.005859375z M204.47265625,37.5390625l-3.84765625,0.078125q-2.4609375,0.01953125-3.75,0.5078125q-1.2890625,0.46875-1.97265625,1.4453125t-0.68359375,2.55859375q0,1.71875,0.927734375,2.65625t2.646484375,0.9375q1.953125,0,3.4375-0.87890625q1.50390625-0.87890625,2.373046875-2.412109375t0.869140625-3.154296875l0-1.73828125z M217.44140625,35.72265625l0,12.24609375l-3.515625,0l0-16.62109375q0-1.85546875-0.029296875-2.978515625t-0.087890625-1.533203125l3.3203125,0q0.0390625,0.37109375,0.068359375,0.9375t0.048828125,1.25t0.0390625,1.42578125l0.05859375,0q1.2109375-2.1875,2.802734375-3.095703125t3.955078125-0.908203125q3.4765625,0,5.087890625,1.77734375t1.611328125,5.6640625l0,14.08203125l-3.53515625,0l0-13.3984375q0-3.02734375-0.9765625-4.21875t-3.37890625-1.19140625q-2.5390625,0-4.00390625,1.73828125t-1.46484375,4.82421875z  M250.703125,18.984375l0,3.359375l-3.515625,0l0-3.359375l3.515625,0z M250.703125,26.8359375l0,21.1328125l-3.515625,0l0-21.1328125l3.515625,0z M264.21875,47.8125q-1.71875,0.46875-3.5546875,0.46875q-2.109375,0-3.1640625-1.201171875t-1.0546875-3.583984375l0-14.1015625l-2.44140625,0l0-2.55859375l2.578125,0l1.03515625-4.7265625l2.34375,0l0,4.7265625l3.90625,0l0,2.55859375l-3.90625,0l0,13.33984375q0,1.5234375,0.498046875,2.138671875t1.728515625,0.615234375q0.6640625,0,2.03125-0.2734375l0,2.59765625z M271.97265625,43.69140625l0,4.27734375l-3.80859375,0l0-4.27734375l3.80859375,0z  M302.6171875,45.33203125q2.6953125,0,5.029296875-0.8203125t3.779296875-2.2265625l0-4.9609375l-8.22265625,0l0-3.125l11.66015625,0l0,9.4921875q-2.1875,2.2265625-5.361328125,3.447265625t-6.884765625,1.220703125q-4.296875,0-7.40234375-1.73828125t-4.78515625-4.951171875t-1.6796875-7.587890625q0-6.69921875,3.59375-10.37109375t10.09765625-3.671875q4.5703125,0,7.421875,1.54296875t4.39453125,4.94140625l-3.5546875,1.0546875q-1.171875-2.34375-3.232421875-3.41796875t-5.126953125-1.07421875q-4.765625,0-7.28515625,2.880859375t-2.51953125,8.115234375q0,5.21484375,2.67578125,8.232421875t7.40234375,3.017578125z M323.2421875,38.14453125q0,3.6328125,1.50390625,5.60546875t4.39453125,1.97265625q2.28515625,0,3.662109375-0.91796875t1.865234375-2.32421875l3.0859375,0.87890625q-1.89453125,5-8.61328125,5q-4.6875,0-7.138671875-2.79296875t-2.451171875-8.30078125q0-5.234375,2.451171875-8.02734375t7.001953125-2.79296875q4.66796875,0,6.9921875,2.8125t2.32421875,8.41796875l0,0.46875l-15.078125,0z M334.6875,35.44921875q-0.29296875-3.33984375-1.69921875-4.873046875t-4.04296875-1.533203125q-2.55859375,0-4.052734375,1.708984375t-1.611328125,4.697265625l11.40625,0z M346.38671875,35.72265625l0,12.24609375l-3.515625,0l0-16.62109375q0-1.85546875-0.029296875-2.978515625t-0.087890625-1.533203125l3.3203125,0q0.0390625,0.37109375,0.068359375,0.9375t0.048828125,1.25t0.0390625,1.42578125l0.05859375,0q1.2109375-2.1875,2.802734375-3.095703125t3.955078125-0.908203125q3.4765625,0,5.087890625,1.77734375t1.611328125,5.6640625l0,14.08203125l-3.53515625,0l0-13.3984375q0-3.02734375-0.9765625-4.21875t-3.37890625-1.19140625q-2.5390625,0-4.00390625,1.73828125t-1.46484375,4.82421875z M368.53515625,18.984375l0,3.359375l-3.515625,0l0-3.359375l3.515625,0z M368.53515625,26.8359375l0,21.1328125l-3.515625,0l0-21.1328125l3.515625,0z M376.62109375,38.14453125q0,3.6328125,1.50390625,5.60546875t4.39453125,1.97265625q2.28515625,0,3.662109375-0.91796875t1.865234375-2.32421875l3.0859375,0.87890625q-1.89453125,5-8.61328125,5q-4.6875,0-7.138671875-2.79296875t-2.451171875-8.30078125q0-5.234375,2.451171875-8.02734375t7.001953125-2.79296875q4.66796875,0,6.9921875,2.8125t2.32421875,8.41796875l0,0.46875l-15.078125,0z M388.06640625,35.44921875q-0.29296875-3.33984375-1.69921875-4.873046875t-4.04296875-1.533203125q-2.55859375,0-4.052734375,1.708984375t-1.611328125,4.697265625l11.40625,0z  M410.78125,18.984375l0,3.359375l-3.515625,0l0-3.359375l3.515625,0z M410.78125,26.8359375l0,21.1328125l-3.515625,0l0-21.1328125l3.515625,0z M424.296875,47.8125q-1.71875,0.46875-3.5546875,0.46875q-2.109375,0-3.1640625-1.201171875t-1.0546875-3.583984375l0-14.1015625l-2.44140625,0l0-2.55859375l2.578125,0l1.03515625-4.7265625l2.34375,0l0,4.7265625l3.90625,0l0,2.55859375l-3.90625,0l0,13.33984375q0,1.5234375,0.498046875,2.138671875t1.728515625,0.615234375q0.6640625,0,2.03125-0.2734375l0,2.59765625z M432.05078125,43.69140625l0,4.27734375l-3.80859375,0l0-4.27734375l3.80859375,0z"/></g></svg>